<?xml version="1.0" standalone="no"?>
<!DOCTYPE svg PUBLIC "-//W3C//DTD SVG 1.1//EN" "http://www.w3.org/Graphics/SVG/1.1/DTD/svg11.dtd">
<svg xmlns="http://www.w3.org/2000/svg" xmlns:xlink="http://www.w3.org/1999/xlink" xmlns:serif="http://www.serif.com/" width="500" height="500" viewBox="0 0 500 500" version="1.1" xml:space="preserve" style="fill-rule:evenodd;clip-rule:evenodd;stroke-linejoin:round;stroke-miterlimit:2;">
    <g>
        <path d="M152,96C149.291,99.282 164.712,106.341 155,160C151.5,180.5 138.815,200.871 130,221C118.833,246.5 110.239,290.203 112,311C113.724,327.299 111.981,364.277 146,401C203.024,462.556 295.109,457.511 348,414C377.333,387.833 400.667,343.833 390,285C381.523,225.153 341.748,193.532 326,151C305.047,94.409 325.5,83.333 322,80C304.239,87.166 288.73,105.255 294,146C294.773,148.881 292.272,161.317 280,162C273.193,161.358 253.562,159.532 269,122C274.358,104.961 284.751,68.973 264,36C255.787,23.662 238.526,10.061 236,15C253.265,64.845 221.612,65.757 205,110C183.833,150.765 222.436,191.751 188.331,196.063C188.331,196.063 174.369,196.041 177,177C179.226,159.318 182.663,147.875 180,134C176.833,117.5 156.167,91.667 152,96Z" style="fill:rgb(247,176,2);"/>
        <g transform="matrix(0.999038,-0.006426,0.006426,0.999038,-10.448855,79.288879)">
            <g transform="matrix(0.705454,0.708756,-0.708756,0.705454,287.475925,4.441868)">
                <text x="138.394px" y="348.092px" style="font-family:'ArialRoundedMTBold', 'Arial Rounded MT Bold', sans-serif;font-size:20.853px;">R</text>
            </g>
            <g transform="matrix(0.821688,0.569937,-0.569937,0.821688,238.276766,-25.599093)">
                <text x="160.05px" y="368.002px" style="font-family:'ArialRoundedMTBold', 'Arial Rounded MT Bold', sans-serif;font-size:20.853px;">E</text>
            </g>
            <g transform="matrix(0.906525,0.422152,-0.422152,0.906525,178.944912,-41.854378)">
                <text x="183.984px" y="383.149px" style="font-family:'ArialRoundedMTBold', 'Arial Rounded MT Bold', sans-serif;font-size:20.853px;">S</text>
            </g>
            <g transform="matrix(0.963969,0.266014,-0.266014,0.963969,112.375263,-41.710617)">
                <text x="210.162px" y="393.976px" style="font-family:'ArialRoundedMTBold', 'Arial Rounded MT Bold', sans-serif;font-size:20.853px;">T</text>
            </g>
            <g transform="matrix(0.993931,0.110006,-0.110006,0.993931,45.429431,-23.483658)">
                <text x="235.543px" y="399.976px" style="font-family:'ArialRoundedMTBold', 'Arial Rounded MT Bold', sans-serif;font-size:20.853px;">A</text>
            </g>
            <g transform="matrix(0.998386,-0.056799,0.056799,0.998386,-22.40775,15.648211)">
                <text x="264.078px" y="402.019px" style="font-family:'ArialRoundedMTBold', 'Arial Rounded MT Bold', sans-serif;font-size:20.853px;">U</text>
            </g>
            <g transform="matrix(0.972929,-0.231106,0.231106,0.972929,-84.253967,78.795401)">
                <text x="294.207px" y="399.031px" style="font-family:'ArialRoundedMTBold', 'Arial Rounded MT Bold', sans-serif;font-size:20.853px;">R</text>
            </g>
            <g transform="matrix(0.918398,-0.395657,0.395657,0.918398,-128.404233,159.519123)">
                <text x="322.524px" y="391.053px" style="font-family:'ArialRoundedMTBold', 'Arial Rounded MT Bold', sans-serif;font-size:20.853px;">A</text>
            </g>
            <g transform="matrix(0.831781,-0.555104,0.555104,0.831781,-151.24788,257.386657)">
                <text x="349.049px" y="378.244px" style="font-family:'ArialRoundedMTBold', 'Arial Rounded MT Bold', sans-serif;font-size:20.853px;">N</text>
            </g>
            <g transform="matrix(0.718797,-0.69522,0.69522,0.718797,-145.462005,360.922917)">
                <text x="373.425px" y="360.275px" style="font-family:'ArialRoundedMTBold', 'Arial Rounded MT Bold', sans-serif;font-size:20.853px;">T</text>
            </g>
        </g>
        <path d="M346.862,219.633L352,221C354.667,222.162 353.273,224.322 353,226C351.833,233.167 340.203,246.54 335,247.204C327.099,248.211 328.423,241.183 333.926,235.861C337.785,232.129 338.563,226.134 339.706,221.888C340.544,220.322 342.935,217.197 346.862,219.633Z" style="fill:rgb(195,20,27);"/>
        <path d="M346.985,220.407C347.049,220.407 347.213,220.366 347.24,220.385C347.38,220.791 349.363,221 349.363,221C348.554,220.892 349.452,221.617 349.452,221.617C349.452,221.617 350.209,222.152 350.754,222.267C351.056,222.354 350.784,221.784 350.783,221.781C350.795,221.453 350.939,220.549 351.54,221.264L351.514,221.115L351.826,222.13C351.826,222.13 352.087,221.41 352.24,221.445C352.578,221.455 353.239,221.888 353.239,221.888L349.988,218.254L349.995,216.706L349.988,215.14L349.985,213.731L350.059,211.259L349.942,208.154C349.942,208.154 349.584,206.535 348.984,206.053C348.327,205.525 345.997,204.985 345.997,204.985C345.997,204.985 345.735,206.382 346.069,206.904C346.402,207.425 347.828,207.374 347.998,208.114C348.318,209.499 348.073,213.786 347.986,215.212C347.954,215.726 347.628,216.357 347.473,216.668C347.386,216.843 347.253,217.022 347.104,217.165C346.863,217.397 346.024,218.06 346.024,218.06C346.024,218.06 345.611,218.389 345.385,218.496L344.028,218.426C344.028,218.426 343.756,218.602 343.802,218.774C343.757,218.806 343.665,218.86 343.642,218.942C343.608,219.061 343.59,219.238 343.641,219.345C344.26,220.821 345.882,221.324 346.985,220.407Z" style="fill:rgb(0,104,71);"/>
        <path d="M151,204C138.726,208.645 121.187,233.248 115.958,245.858C110.291,259.525 103.834,278.675 105,288C109.587,324.696 158.216,290.626 158,298C154.961,330.762 134.144,349.181 125,348C112.955,344.639 109.527,336.34 116.897,315.275C117.295,314.137 119.508,309.214 116,309C111.767,308.4 103.808,321.068 102.938,333.836C102.556,342.654 104.395,346.624 109.497,352.195C127.13,369.276 146.533,358.097 153,353C183.5,326.167 178,298 178,298C178,298 174.145,283.819 162,285C147.337,284.575 124.976,303.375 130,281C139.391,248.249 155.333,216.5 166,213C175.97,220.606 170.464,265.046 156.06,269.454C154.335,269.982 153.08,270.092 153.07,272.016C153.065,272.941 153.377,274.318 156,275C187.653,285.675 200.534,252.759 191,222C190.264,219.625 189.375,217.506 188.36,215.619C179.349,198.859 160.444,200.426 151,204Z"/>
        <path d="M200,262.707C172.373,301.528 185.621,341.302 202.716,343.641C215.584,345.401 226.342,341.313 237.158,316.156C237.158,316.156 253.468,270.904 236,257C228.181,249.565 209.385,249.52 200,262.707Z"/>
        <path d="M226,312C208.729,355.023 194.25,330.099 209.428,286.745C209.428,286.745 217.044,263.185 227.737,267.876C235.516,271.232 229.706,303.001 226,312Z" style="fill:rgb(247,176,2);"/>
        <path d="M266,190C261.607,199.513 258.282,209.802 254,250C253.85,251.63 253.858,251.866 253.858,251.866C253.858,251.866 246.813,253.04 245.803,254.5C244.303,256.666 243.795,261.633 245,263C246.205,264.367 249.687,262.853 252.667,262.72C252.207,265.927 241.269,336.213 252,346C255.676,348.648 268.979,350.156 270,345C262.557,342.23 272.357,275.012 273.742,259.377C296.243,255.532 298.246,256.462 297.38,251.36C295.937,245.514 295.535,245.924 276,249C276.32,236.542 283.183,195.909 286,193C288.199,193.648 289.248,198.399 289.699,201.462C292.138,227.739 278.769,225.979 282,229C283.25,229.89 310.205,236.836 301,197C294.22,183.744 274.249,186.005 266,190Z"/>
        <path d="M305,247C299.5,259.833 287.092,320.614 296,328C300.963,332.242 314.796,334.311 317,329C318.763,322.497 318.849,326.532 312,325C311.5,312.167 316.379,273.648 325,250C325.155,246.859 319.333,244.5 316,244C312.667,243.5 306.497,243.507 305,247Z"/>
        <g transform="matrix(1.098917,0.004843,-0.004264,0.967526,-29.230915,6.958578)">
            <path d="M304,220C306.348,224.948 315.083,242.005 315.083,242.005C315.083,242.005 322.827,224.061 325.079,218.968C324.449,216.654 304.912,217.464 304,220Z"/>
        </g>
        <path d="M363,277C366.696,271.932 375.454,268.927 371,246C369.673,242.983 366.947,241.303 366,243C352.916,250.955 343.902,282.184 347,289C351.167,298.167 358.432,280.482 375,284C393.943,291.672 373.694,322.473 361,327C335.753,338.582 331.192,320.721 331,318C330.373,311.854 333.925,300.66 340,302C342.92,304.226 333.569,310.687 338.26,319.538C342.452,326.804 351.969,322.049 352,322C360.307,318.047 371.805,289.098 365,291C352.309,300.533 331,301.833 330,293C323.999,270.246 347.159,242.27 359,238C368.893,233.38 386.37,235.615 387,255C386.989,261.842 386.938,270.429 381,275C377.88,277.674 365.514,280.505 363,277Z"/>
        <path d="M206,372C208.417,381.16 227.974,386.858 253,387C287.983,387.199 298.139,374.911 296,369C292.165,358.402 264.991,354.394 250,355C217,356.333 205.104,366.185 206,372Z"/>
        <path d="M197,377C197.029,384.757 196.136,405.838 197.465,413.683C202.535,441.253 228.529,457.531 248.285,457.044L258.731,456.769C272.065,456.339 296.373,442.706 301,425C306.927,425.161 328.245,410.317 330,392C330.34,380.277 323.197,372.199 309,373C306.911,372.478 304.087,365.37 304.044,370.779C298.546,403.045 210.019,396.973 200.181,376.514C198.424,372.02 203.15,368.552 198.153,371.996C197.467,372.408 197.065,376.438 197,377Z"/>
        <path d="M305,413C304.13,413.022 307.566,391.736 308,388C311.617,383.198 317.759,384.244 320,389C324.121,399.032 306.839,412.043 305,413Z" style="fill:rgb(247,176,2);"/>
        <path d="M193,100C194.379,88.4 211.355,75.178 212.936,64.364C214.988,51.345 203.392,31.742 204,36C207.436,58.455 196.686,62.906 191,78C188.831,86.131 190.272,97.995 193,100Z" style="fill:rgb(247,176,2);"/>
    </g>
</svg>